<?xml version="1.0" standalone="no"?>
<!DOCTYPE svg PUBLIC "-//W3C//DTD SVG 20010904//EN"
 "http://www.w3.org/TR/2001/REC-SVG-20010904/DTD/svg10.dtd">
<svg version="1.0" xmlns="http://www.w3.org/2000/svg"
 width="1200.000000pt" height="1200.000000pt" viewBox="0 0 1200.000000 1200.000000"
 preserveAspectRatio="xMidYMid meet">
<metadata>
Created by potrace 1.11, written by Peter Selinger 2001-2013
</metadata>
<g transform="translate(0.000000,1200.000000) scale(0.100000,-0.100000)"
fill="#000000" stroke="none">
<path d="M0 6000 l0 -6000 6000 0 6000 0 0 6000 0 6000 -6000 0 -6000 0 0
-6000z m5616 1564 c-21 -56 -1411 -2413 -1424 -2415 -4 0 -28 -2 -53 -3 l-46
-3 17 31 c97 170 412 709 723 1236 335 568 429 727 643 1087 l49 83 49 0 c40
0 47 -3 42 -16z m766 4 c16 -13 179 -286 830 -1393 412 -699 598 -1020 598
-1030 0 -12 -91 2 -104 16 -22 24 -696 1164 -1241 2099 -97 168 -179 308 -182
313 -7 12 82 8 99 -5z m-2628 -3175 c-21 -38 -99 -174 -175 -303 l-137 -235
2506 -3 c1378 -1 2507 0 2510 2 2 3 -55 108 -128 233 -196 337 -210 361 -210
367 0 3 22 6 49 6 l48 0 166 -277 c91 -153 186 -313 211 -355 l46 -78 -2686 0
c-1477 0 -2683 3 -2681 8 20 37 323 547 364 615 l54 87 50 0 51 0 -38 -67z"/>
</g>
</svg>
