<?xml version="1.0" encoding="UTF-8"?>
<svg width="134px" height="93px" viewBox="0 0 134 93" version="1.1" xmlns="http://www.w3.org/2000/svg" xmlns:xlink="http://www.w3.org/1999/xlink">
    <!-- Generator: Sketch 48.1 (47250) - http://www.bohemiancoding.com/sketch -->
    <title>Group</title>
    <desc>Created with Sketch.</desc>
    <defs></defs>
    <g id="Logotipo-v2" stroke="none" stroke-width="1" fill="none" fill-rule="evenodd" transform="translate(-1074.000000, -91.000000)">
        <g id="logo-microlink-gradient-bg-circle-copy" transform="translate(1027.000000, 24.000000)">
            <circle id="Oval-Copy" stroke="#979797" cx="113" cy="113" r="113"></circle>
            <g id="Group" transform="translate(47.000000, 67.000000)" fill-rule="nonzero">
                <path d="M117.985133,0 L57.0168916,0 C48.1865477,0 41,6.75886953 41,15.0653401 L41,22.7487243 L51.1218981,22.7487243 L51.1218981,15.0653401 C51.1218981,12.3342794 53.7677623,10.1150397 57.0168916,10.1150397 L117.985133,10.1150397 C121.234262,10.1150397 123.878102,12.3363024 123.878102,15.0653401 L123.878102,51.9346599 C123.878102,54.6657206 121.234262,56.8849603 117.985133,56.8849603 L57.0168916,56.8849603 C53.7677623,56.8849603 51.1218981,54.6636976 51.1218981,51.9346599 L51.1218981,40.1567076 L41,40.1567076 L41,51.9346599 C41,60.2411305 48.1865477,67 57.0168916,67 L117.985133,67 C126.815477,67 134,60.2411305 134,51.9346599 L134,15.0653401 C134,6.75684652 126.815477,0 117.985133,0 Z" id="Shape" fill="#EA407B"></path>
                <path d="M93,77.9346595 L93,70.2512754 L82.8785425,70.2512754 L82.8785425,77.9346595 C82.8785425,80.6657202 80.2327935,82.8849599 76.9817814,82.8849599 L16.0161943,82.8849599 C12.7672065,82.8849599 10.1214575,80.6636972 10.1214575,77.9346595 L10.1214575,41.06534 C10.1214575,38.3342793 12.7672065,36.1150396 16.0161943,36.1150396 L76.9797571,36.1150396 C80.2307692,36.1150396 82.8765182,38.3363023 82.8765182,41.06534 L82.8765182,52.8432922 L92.9979757,52.8432922 L92.9979757,41.06534 C92.9979757,32.7588695 85.8117409,26 76.9797571,26 L16.0161943,26 C7.18623482,26 0,32.7588695 0,41.06534 L0,77.9346595 C0,86.2411301 7.18623482,92.9999995 16.0161943,92.9999995 L76.9797571,92.9999995 C85.8137652,93.0020226 93,86.2431531 93,77.9346595 Z" id="Shape" fill="#654EA3"></path>
            </g>
        </g>
    </g>
</svg>