<?xml version="1.0" encoding="UTF-8"?>
<svg width="160px" height="116px" viewBox="0 0 160 116" version="1.1" xmlns="http://www.w3.org/2000/svg" xmlns:xlink="http://www.w3.org/1999/xlink">
    <!-- Generator: Sketch 48.1 (47250) - http://www.bohemiancoding.com/sketch -->
    <title>Combined Shape</title>
    <desc>Created with Sketch.</desc>
    <defs>
        <linearGradient x1="100%" y1="0%" x2="0%" y2="100%" id="linearGradient-1">
            <stop stop-color="#7742B2" offset="0%"></stop>
            <stop stop-color="#F180FF" offset="51.7099809%"></stop>
            <stop stop-color="#FD8BD9" offset="100%"></stop>
        </linearGradient>
        <linearGradient x1="50.0002727%" y1="-0.00112501406%" x2="50.0002727%" y2="100.000125%" id="linearGradient-2">
            <stop stop-color="#EC3944" offset="0%"></stop>
            <stop stop-color="#C02E74" offset="29.44%"></stop>
            <stop stop-color="#654EA3" offset="100%"></stop>
        </linearGradient>
    </defs>
    <g id="Mods" stroke="none" stroke-width="1" fill="none" fill-rule="evenodd" transform="translate(-736.000000, -92.000000)">
        <g id="logo-microlink-copy-4" transform="translate(736.000000, 92.000000)" fill="url(#linearGradient-2)" fill-rule="nonzero">
            <path d="M160,107.295541 C160,112.084951 156.171706,115.98405 151.454701,116 L8.54093562,116 C3.82974855,115.98405 0,112.086401 0,107.295541 L0,8.70155877 C0,3.90344879 3.84429374,0 8.56857148,0 L151.428519,0 C156.155706,0 160,3.90344879 160,8.70155877 L160,107.295541 Z M53.3386666,42.7349342 C53.3386666,40.5990575 52.0179633,39.2099401 49.9874548,39.2099401 C47.9569462,39.2099401 46.6042436,40.5976075 46.6042436,42.7349342 L46.6042436,54.5859323 L40.207269,54.5859323 L40.207269,42.7349342 C40.207269,40.5976075 38.8909293,39.2099401 36.8604207,39.2099401 C34.8299122,39.2099401 33.4743005,40.5976075 33.4743005,42.7349342 L33.4743005,54.5859323 L27.0802349,54.5859323 L27.0802349,34.1464768 L33.2503045,34.1464768 L33.324485,36.2461031 C34.7920947,34.559732 36.8982382,33.7709221 39.1163797,33.7709221 C41.5992437,33.7709221 43.6312067,34.7467843 44.9490009,36.4346054 C46.5271541,34.6336829 48.8602025,33.7709221 51.3430665,33.7709221 C56.3466119,33.7709221 59.7327321,36.958062 59.7327321,41.759072 L59.7327321,54.5859323 L53.3386666,54.5859323 L53.3386666,42.7349342 Z M67.4387738,24.4328054 C69.5827349,24.4328054 71.1230705,25.9712746 71.1230705,28.1086014 C71.1230705,30.2459281 69.5841894,31.7843973 67.4387738,31.7843973 C65.2933583,31.7843973 63.7137507,30.2459281 63.7137507,28.1086014 C63.7137507,25.9712746 65.2933583,24.4328054 67.4387738,24.4328054 Z M64.202469,34.1464768 L70.5965346,34.1464768 L70.5965346,54.5859323 L64.202469,54.5859323 L64.202469,34.1464768 Z M61.8359666,67.8535982 C66.6518791,67.8535982 69.8474573,71.040738 69.8445483,75.840298 L69.8445503,88.6671583 L63.4504827,88.6671583 L63.4504827,76.8176102 C63.4504827,74.6788335 61.9086926,73.2911661 59.5756441,73.2911661 C57.2076871,73.2911661 55.6644425,74.6788335 55.6644425,76.8176102 L55.6644425,88.6671583 L49.2703769,88.6671583 L49.2703769,68.2291529 L55.4404465,68.2291529 L55.514627,70.5172815 C57.1349612,68.716359 59.4272831,67.8535982 61.8359666,67.8535982 Z M27.1180524,59.4144927 L33.512118,59.4144927 L33.512118,88.6657083 L27.1180524,88.6657083 L27.1180524,59.4144927 Z M41.4101562,58.5154814 C43.5555717,58.5154814 45.0973619,60.0525007 45.0973619,62.1898274 C45.0973619,64.3271541 43.5555717,65.8656233 41.4101562,65.8656233 C39.2647406,65.8656233 37.685133,64.3271541 37.685133,62.1898274 C37.685133,60.0525007 39.2647406,58.5154814 41.4101562,58.5154814 Z M38.1738514,68.2277028 L44.570826,68.2277028 L44.570826,88.6657083 L38.1738514,88.6657083 L38.1738514,68.2277028 Z M95.5357175,68.2277028 L86.507518,77.9036738 L96.0244359,88.6657083 L87.9358557,88.6657083 L81.1287068,80.5296566 L80.6763513,80.5296566 L80.6763513,88.6657083 L74.2822858,88.6657083 L74.2822858,59.4144927 L80.6763513,59.4144927 L80.6763513,75.3153914 L81.2392502,75.3153914 L87.4849548,68.2277028 L95.5357175,68.2277028 Z M85.3802658,54.961487 C78.6822058,54.961487 74.2051963,50.723084 74.2066508,44.3473543 C74.2066508,38.0093251 78.7200233,33.7709221 85.5315358,33.7709221 C88.2776677,33.7709221 90.7983491,34.7105339 92.7154052,36.2084026 L89.105289,40.5222065 C88.2383957,39.7348467 87.1475064,39.2113901 85.6449883,39.2113901 C82.7475864,39.2113901 80.8654388,41.2733159 80.8654388,44.3488044 C80.8654388,47.4242928 82.7097689,49.4862186 85.6449883,49.4862186 C87.4122289,49.4862186 88.7678406,48.9990125 89.7816403,47.836098 L93.3946656,52.0745009 C91.40052,54.0247753 88.5394811,54.961487 85.3802658,54.961487 Z M102.30214,34.1464768 L102.415592,36.6231078 C104.031563,34.8221853 106.55079,33.7723722 109.599462,33.7723722 L109.184924,39.6217453 C105.273722,39.6217453 102.529045,41.4226678 102.529045,44.0849011 L102.529045,54.5859323 L96.1320703,54.5859323 L96.1320703,34.1464768 L102.30214,34.1464768 Z M121.747605,33.7723722 C128.407847,33.7723722 132.92122,38.0093251 132.92122,44.3488044 C132.92122,50.723084 128.406393,54.961487 121.747605,54.961487 C114.975364,54.961487 110.460537,50.723084 110.460537,44.3488044 C110.460537,38.0107751 114.975364,33.7723722 121.747605,33.7723722 Z M121.711242,49.4862186 C124.455919,49.4862186 126.298795,47.4242928 126.298795,44.3488044 C126.298795,41.2733159 124.455919,39.2113901 121.711242,39.2113901 C118.927292,39.2113901 117.082962,41.2733159 117.082962,44.3488044 C117.082962,47.4242928 118.927292,49.4862186 121.711242,49.4862186 Z M154.154288,107.295541 L154.154288,8.70155877 C154.154288,7.18628983 152.93831,5.95522444 151.429974,5.95522444 C111.309393,5.95522444 81.2189575,5.95522444 61.1586671,5.95522444 C49.4723024,5.95522444 31.9427554,5.95522444 8.570026,5.95522444 C7.0704169,5.95522444 5.84862093,7.18628983 5.84862093,8.70155877 L5.84862093,107.295541 C5.84862093,108.81081 7.0704169,110.043326 8.570026,110.043326 L151.429974,110.043326 C152.93831,110.043326 154.154288,108.81081 154.154288,107.295541 Z" id="Combined-Shape"></path>
        </g>
    </g>
</svg>