<svg id="a8350f50-45e8-4de4-a171-a2622cdeb181" data-name="Layer 1" xmlns="http://www.w3.org/2000/svg" xmlns:xlink="http://www.w3.org/1999/xlink" viewBox="0 0 258 52"><defs><linearGradient id="adb042d5-12d3-403b-adef-efad8472246d" x1="-812.641" y1="556.23" x2="-811.926" y2="555.372" gradientTransform="matrix(48.287, 0, 0, -47.962, 39295.339, 26683.529)" gradientUnits="userSpaceOnUse"><stop offset="0" stop-color="#aa39f3"/><stop offset="1" stop-color="#6f00b7"/></linearGradient><linearGradient id="e43145df-d6fc-41a0-9dc1-de703d0c56d1" x1="-811.406" y1="556.152" x2="-812.128" y2="555.306" gradientTransform="matrix(46.731, 0, 0, -47.629, 37957.551, 26494.751)" gradientUnits="userSpaceOnUse"><stop offset="0" stop-color="#00e1fa"/><stop offset="1" stop-color="#0090f0"/></linearGradient><linearGradient id="bc05922c-3523-47f3-bfde-de63660e2e9a" x1="-812.649" y1="555.115" x2="-811.988" y2="555.93" gradientTransform="matrix(48.316, 0, 0, -46.698, 39303.756, 25966.807)" gradientUnits="userSpaceOnUse"><stop offset="0" stop-color="#f05200"/><stop offset="1" stop-color="#ff8700"/></linearGradient></defs><path id="ad0d1b5a-6c7b-4fb8-a62b-16ca619657c7" data-name="Path 1" d="M55.617,5.609l-8.319,9.9L74.821,46.56A10.107,10.107,0,0,0,88.888,47.6l3.09-2.6a10.111,10.111,0,0,0,1.243-14.238.771.771,0,0,1-.144-.173L78.835,14.415,70.923,5.434a10.132,10.132,0,0,0-14.267-.925C56.31,4.855,55.934,5.231,55.617,5.609Z" fill="url(#adb042d5-12d3-403b-adef-efad8472246d)"/><path id="bcc2aeed-c7a3-4582-83aa-4eec11fc55b8" data-name="Path 2" d="M39.212,5.866l8.082,9.675-25.73,30.7A10.086,10.086,0,0,1,7.357,47.511l-.03-.025L4.178,44.855A10.085,10.085,0,0,1,2.912,30.649l.025-.03L23.731,5.837A10.111,10.111,0,0,1,37.969,4.6a10.429,10.429,0,0,1,1.243,1.27Z" fill="url(#e43145df-d6fc-41a0-9dc1-de703d0c56d1)"/><path id="f30c3073-e397-4fec-98e6-1904bd85d187" data-name="Path 3" d="M70.953,5.433,79.79,15.484,55.33,45.029a10.12,10.12,0,0,1-14.238,1.357,8.85,8.85,0,0,1-1.53-1.588L31.474,34.4,55.617,5.608A10.113,10.113,0,0,1,69.855,4.364a9.567,9.567,0,0,1,1.1,1.068Z" fill="url(#bc05922c-3523-47f3-bfde-de63660e2e9a)"/><path id="f8c4c08d-af7b-466b-972b-1b77873616e4" data-name="Path 4" d="M47.3,15.512,34.042,37.691,31.471,34.4Zm32.492-.029L66.851,37.577l-2.773-3.119Z" opacity="0.199" style="isolation:isolate"/><path d="M110.485,39.733a.927.927,0,0,1-.287-.717V12.325a.983.983,0,0,1,1.025-1.025h3.239a1.267,1.267,0,0,1,1.23.779l7.913,14.76,7.995-14.76a1.318,1.318,0,0,1,1.23-.779h3.2a.983.983,0,0,1,1.026,1.025V39.016a.93.93,0,0,1-.287.717,1.043,1.043,0,0,1-.739.267h-3.443a.98.98,0,0,1-.984-.984V21.263L125.86,32.21a1.585,1.585,0,0,1-1.394.9h-1.681a1.584,1.584,0,0,1-1.394-.9l-5.74-10.947V39.016a.986.986,0,0,1-.267.7.932.932,0,0,1-.717.287h-3.444A1.039,1.039,0,0,1,110.485,39.733Z" fill="#011e42"/><path d="M146.236,47.544a.788.788,0,0,1-.246-.574,1.3,1.3,0,0,1,.164-.656l3.2-7.585L141.48,20.156a1.556,1.556,0,0,1-.164-.574,1.094,1.094,0,0,1,.288-.636.807.807,0,0,1,.615-.266h3.32a1.132,1.132,0,0,1,1.107.779L152.1,32.866l5.617-13.407a1.133,1.133,0,0,1,1.107-.779h3.28a.852.852,0,0,1,.593.246.759.759,0,0,1,.268.574,1.671,1.671,0,0,1-.164.656L151.2,47.011a1.209,1.209,0,0,1-1.148.779h-3.238A.788.788,0,0,1,146.236,47.544Z" fill="#011e42"/><path d="M167.27,39.733a.928.928,0,0,1-.288-.717V12.325a.985.985,0,0,1,1.026-1.025h3.238a1.27,1.27,0,0,1,1.231.779l7.912,14.76,8-14.76a1.315,1.315,0,0,1,1.229-.779h3.2a.983.983,0,0,1,1.026,1.025V39.016a.934.934,0,0,1-.287.717,1.045,1.045,0,0,1-.739.267h-3.444a.98.98,0,0,1-.983-.984V21.263l-5.74,10.947a1.586,1.586,0,0,1-1.4.9h-1.681a1.581,1.581,0,0,1-1.393-.9l-5.74-10.947V39.016a.987.987,0,0,1-.268.7.932.932,0,0,1-.717.287h-3.443A1.036,1.036,0,0,1,167.27,39.733Z" fill="#011e42"/><path d="M202.1,39.569a6.937,6.937,0,0,1-2.746-2.275,5.569,5.569,0,0,1,1.25-7.667,13.527,13.527,0,0,1,6.191-2.337l5.617-.82v-.861a3.681,3.681,0,0,0-.9-2.706A4,4,0,0,0,208.6,22a4.167,4.167,0,0,0-2.194.513,7.156,7.156,0,0,0-1.333,1q-.492.534-.656.7a.619.619,0,0,1-.614.492h-3.157a.9.9,0,0,1-.635-.246.847.847,0,0,1-.268-.656,4.446,4.446,0,0,1,1-2.337,7.589,7.589,0,0,1,2.973-2.255,11.539,11.539,0,0,1,4.92-.943q4.838,0,7.051,2.173a7.629,7.629,0,0,1,2.215,5.7V39.016a.99.99,0,0,1-.267.7.932.932,0,0,1-.717.287H213.6a.98.98,0,0,1-.984-.984v-1.6a6.68,6.68,0,0,1-2.562,2.152,9.065,9.065,0,0,1-4.121.841A8.7,8.7,0,0,1,202.1,39.569Zm8.918-4.53a5.932,5.932,0,0,0,1.435-4.3v-.861l-4.1.656a8.928,8.928,0,0,0-3.587,1.189,2.387,2.387,0,0,0-1.21,2.009,2.332,2.332,0,0,0,1.106,2.05,4.7,4.7,0,0,0,2.666.738A4.924,4.924,0,0,0,211.016,35.039Z" fill="#011e42"/><path d="M223.48,39.713a.946.946,0,0,1-.287-.7V11.874a.932.932,0,0,1,.287-.718.988.988,0,0,1,.7-.266h3.649a.918.918,0,0,1,.984.984v9.348a8.194,8.194,0,0,1,6.641-2.952,7.748,7.748,0,0,1,6.028,2.481,9.647,9.647,0,0,1,2.255,6.744V39.016a.986.986,0,0,1-.267.7.932.932,0,0,1-.717.287h-3.69a.98.98,0,0,1-.984-.984V27.741a5.505,5.505,0,0,0-1.169-3.752,4.26,4.26,0,0,0-3.382-1.332,4.5,4.5,0,0,0-3.445,1.353,5.235,5.235,0,0,0-1.27,3.731V39.016a.986.986,0,0,1-.267.7.932.932,0,0,1-.717.287h-3.649A.949.949,0,0,1,223.48,39.713Z" fill="#011e42"/><path d="M249.063,14.867a.95.95,0,0,1-.287-.7V11.218a.98.98,0,0,1,.984-.984h3.731a1.022,1.022,0,0,1,.718.287.92.92,0,0,1,.308.7V14.17a.951.951,0,0,1-.288.7,1,1,0,0,1-.738.287H249.76A.945.945,0,0,1,249.063,14.867Zm.165,24.846a.943.943,0,0,1-.288-.7V19.664a.982.982,0,0,1,.984-.984h3.4a.919.919,0,0,1,.985.984V39.016a.986.986,0,0,1-.267.7.934.934,0,0,1-.718.287h-3.4A.945.945,0,0,1,249.228,39.713Z" fill="#011e42"/></svg>